<?xml version="1.0" encoding="utf-8"?>
<!-- Generator: Adobe Illustrator 15.1.0, SVG Export Plug-In . SVG Version: 6.00 Build 0)  -->
<!DOCTYPE svg PUBLIC "-//W3C//DTD SVG 1.1//EN" "http://www.w3.org/Graphics/SVG/1.1/DTD/svg11.dtd">
<svg version="1.1" id="Layer_1" xmlns="http://www.w3.org/2000/svg" xmlns:xlink="http://www.w3.org/1999/xlink" x="0px" y="0px"
	 width="72px" height="72px" viewBox="0 0 72 72" enable-background="new 0 0 72 72" xml:space="preserve">
<path fill="#FFFFFF" d="M0,0v72h72V0H0z M37.939,59.837h-7.937V51.9h7.937V59.837z M45.555,28.381
	c-0.683,1.472-1.515,2.87-2.496,4.192l-2.879,4.032c-0.982,1.366-1.814,2.879-2.496,4.543c-0.684,1.664-1.024,3.351-1.024,5.057
	v0.832h-5.376c-0.128-1.92-0.192-3.051-0.192-3.393c0-2.048,0.416-3.882,1.248-5.504c0.832-1.621,1.749-3.188,2.752-4.704
	c1.002-1.514,1.92-3.018,2.752-4.512c0.832-1.493,1.248-3.114,1.248-4.864c0-1.962-0.598-3.445-1.792-4.448
	c-1.195-1.002-2.752-1.504-4.672-1.504c-3.286,0-5.931,1.387-7.936,4.16l-1.792-5.888c2.048-3.029,5.461-4.544,10.24-4.544
	c2.09,0,3.968,0.363,5.632,1.088c1.664,0.726,3.071,1.675,4.224,2.848c1.151,1.174,2.036,2.486,2.655,3.936
	c0.619,1.451,0.929,2.88,0.929,4.288C46.579,25.448,46.236,26.909,45.555,28.381z"/>
</svg>
