<?xml version="1.0" encoding="utf-8"?>
<!-- Generator: Adobe Illustrator 15.1.0, SVG Export Plug-In . SVG Version: 6.00 Build 0)  -->
<!DOCTYPE svg PUBLIC "-//W3C//DTD SVG 1.1//EN" "http://www.w3.org/Graphics/SVG/1.1/DTD/svg11.dtd">
<svg version="1.1" id="Layer_1" xmlns="http://www.w3.org/2000/svg" xmlns:xlink="http://www.w3.org/1999/xlink" x="0px" y="0px"
	 width="72px" height="72px" viewBox="0 0 72 72" enable-background="new 0 0 72 72" xml:space="preserve">
<path fill="#FFFFFF" d="M0,0v72h72V0H0z M14.4,64.801c-3.977,0-7.2-3.224-7.2-7.2s3.224-7.2,7.2-7.2s7.2,3.224,7.2,7.2
	S18.376,64.801,14.4,64.801z M14.4,21.6c-3.977,0-7.2-3.223-7.2-7.199s3.224-7.2,7.2-7.2s7.2,3.224,7.2,7.2S18.376,21.6,14.4,21.6z
	 M57.6,64.801c-3.977,0-7.199-3.225-7.199-7.201S53.623,50.4,57.6,50.4s7.201,3.223,7.201,7.199S61.576,64.801,57.6,64.801z
	 M57.6,21.6c-3.977,0-7.199-3.223-7.199-7.199s3.223-7.201,7.199-7.201s7.201,3.225,7.201,7.201S61.576,21.6,57.6,21.6z"/>
</svg>
