<?xml version="1.0" encoding="utf-8"?>
<!-- Generator: Adobe Illustrator 15.1.0, SVG Export Plug-In . SVG Version: 6.00 Build 0)  -->
<!DOCTYPE svg PUBLIC "-//W3C//DTD SVG 1.1//EN" "http://www.w3.org/Graphics/SVG/1.1/DTD/svg11.dtd">
<svg version="1.1" id="Layer_1" xmlns="http://www.w3.org/2000/svg" xmlns:xlink="http://www.w3.org/1999/xlink" x="0px" y="0px"
	 width="72px" height="72px" viewBox="0 0 72 72" enable-background="new 0 0 72 72" xml:space="preserve">
<g opacity="0.5">
	<path fill="#FFFFFF" d="M35.999,12c-13.254,0-24,10.746-24,24c0,5.475,1.836,10.518,4.921,14.555l33.633-33.634
		C46.516,13.836,41.473,12,35.999,12z"/>
	<path fill="#FFFFFF" d="M21.129,54.83c4.089,3.234,9.252,5.17,14.87,5.17C49.254,60,60,49.255,60,36
		c0-5.618-1.936-10.781-5.17-14.87L21.129,54.83z"/>
	<path fill="#FFFFFF" d="M0,0v72h72V0H0z M35.999,66C19.431,66,6,52.568,6,36C6,19.432,19.432,6,36,6c16.566,0,30,13.432,30,30
		C66,52.568,52.566,66,35.999,66z"/>
</g>
</svg>
